<?xml version="1.0" encoding="UTF-8"?>
<svg xmlns="http://www.w3.org/2000/svg" viewBox="0 0 120 120">
  <defs>
    <style>
      .cls-1 {
        fill: #fff;
      }
    </style>
  </defs>
  <g id="Schutzzone">
    <path class="cls-1" d="M60,120c33.14,0,60-26.86,60-60S93.14,0,60,0,0,26.86,0,60s26.86,60,60,60"/>
  </g>
  <g id="Logo">
    <path d="M88.18,30.15h-37.91c-.96,0-1.87.38-2.55,1.05l-13.88,13.81c-.89.89-.27,2.41.99,2.41h23.41s-23.05,22.94-28.24,28.1c-.55.55-.55,1.44,0,1.99l11.98,11.92c.55.55,1.45.55,2.01,0l28.24-28.1s0,16.8,0,23.3c0,1.26,1.53,1.88,2.42.99l13.88-13.81c.67-.67,1.05-1.58,1.05-2.53V31.56c0-.78-.63-1.41-1.42-1.41"/>
  </g>
  <g id="Kreis_cut_1.4pt_vektorisiert" data-name="Kreis cut 1.4pt vektorisiert">
    <path d="M107.99,41.21c-6.45-16.44-21.21-28.65-38.53-31.87l.14-.74c17.57,3.26,32.55,15.65,39.09,32.34l-.71.28Z"/>
    <path d="M40.98,108.71c-16.61-6.49-28.65-20.77-32.21-38.19l.74-.15c3.51,17.17,15.38,31.24,31.75,37.64l-.28.71Z"/>
  </g>
  <g id="Text_unten_vektorisiert_ANKERPUNKT_i_l" data-name="Text unten vektorisiert ANKERPUNKT i l">
    <path d="M48.54,108.45l.58-2.12.98.27-1.92,6.97-1.17-.32-1.15-3.95c-.34-1.15-.57-2.02-.7-2.61-.19.78-.5,1.96-.93,3.52l-.58,2.12-.99-.27,1.92-6.97,1.17.32,1.16,3.95c.31,1.08.54,1.95.7,2.62.19-.79.5-1.97.93-3.53Z"/>
    <path d="M54.7,113.93c-.53.44-1.16.61-1.91.51-.74-.1-1.31-.43-1.71-.98s-.54-1.25-.43-2.07c.11-.83.43-1.46.96-1.89.52-.43,1.16-.59,1.91-.5s1.32.42,1.71.97c.39.55.53,1.24.42,2.08-.11.83-.42,1.45-.94,1.88ZM51.89,112.93c.22.37.56.58,1.02.64.46.06.84-.06,1.14-.35.31-.29.5-.73.58-1.31s0-1.05-.22-1.41c-.22-.36-.56-.58-1.01-.64s-.84.06-1.15.35-.5.73-.58,1.31c-.08.58,0,1.05.22,1.41Z"/>
    <path d="M60.68,112.51l.03-2.96h.99s-.05,5.25-.05,5.25h-.95s0-.79,0-.79c-.39.6-.93.9-1.61.89-.56,0-.99-.17-1.31-.5-.31-.33-.47-.78-.46-1.37l.03-3.52h.99s-.03,3.38-.03,3.38c0,.73.35,1.1,1.06,1.11.36,0,.67-.13.92-.39.25-.26.38-.63.38-1.11Z"/>
    <path d="M65.81,114.62c-1.41.15-2.21-.37-2.4-1.56l.98-.1c.08.36.22.6.42.73.21.13.51.17.93.13.74-.08,1.09-.36,1.04-.84-.02-.21-.12-.36-.29-.46-.17-.1-.46-.16-.87-.19l-.53-.05c-1.09-.09-1.68-.55-1.77-1.39-.05-.46.09-.85.41-1.16.32-.31.78-.49,1.39-.56,1.39-.15,2.17.36,2.32,1.53l-.95.1c-.06-.35-.19-.58-.39-.71-.21-.13-.5-.17-.9-.13-.31.03-.55.12-.71.26-.16.14-.22.32-.2.54.02.2.11.35.27.45.16.09.41.16.74.19l.54.04c.63.06,1.1.19,1.4.41s.47.54.52.97c.05.51-.09.92-.44,1.24-.34.32-.85.51-1.52.58Z"/>
    <path d="M72.96,106.65l-.43.11c-.43.1-.59.38-.48.83l.11.46,1.04-.25.2.81-1.03.25,1.05,4.28-.96.23-1.05-4.28-.79.19-.2-.81.79-.19-.11-.46c-.25-1,.13-1.62,1.12-1.86.1-.02.28-.06.55-.1l.2.8Z"/>
    <path d="M79.75,110.49c-.27.63-.76,1.07-1.47,1.31s-1.36.21-1.97-.11c-.61-.32-1.05-.87-1.32-1.65-.28-.79-.28-1.49,0-2.12.27-.62.76-1.05,1.47-1.3s1.37-.22,1.97.1c.6.31,1.04.87,1.31,1.66.28.79.28,1.49,0,2.11ZM76.8,110.87c.36.22.76.26,1.2.11.43-.15.72-.43.86-.83.14-.4.11-.88-.08-1.43-.19-.55-.47-.94-.83-1.16s-.76-.26-1.19-.11c-.43.15-.72.43-.87.83-.14.4-.12.88.07,1.43s.47.94.84,1.16Z"/>
    <path d="M82.43,104.14c.13-.06.22-.1.26-.11l.41.87-.22.11c-.46.22-.75.5-.89.85-.14.35-.1.75.11,1.19l1.22,2.57-.89.42-2.25-4.74.86-.41.4.84c0-.75.33-1.28,1-1.6Z"/>
    <path d="M88.44,100.5c.46-.3.92-.39,1.36-.28.44.11.81.41,1.12.88l1.91,2.95-.84.54-1.84-2.84c-.39-.61-.86-.74-1.41-.38-.29.19-.46.46-.5.81-.04.35.08.74.36,1.18l1.56,2.41-.83.54-1.84-2.84c-.39-.61-.87-.73-1.42-.38-.29.19-.46.46-.49.82-.04.35.08.75.36,1.17l1.56,2.42-.83.54-2.85-4.4.79-.51.42.66c-.03-.69.21-1.21.74-1.56.65-.42,1.26-.42,1.85-.02-.05-.75.21-1.31.79-1.68Z"/>
    <path d="M97.3,99.35c-.02.68-.31,1.27-.87,1.77-.56.5-1.18.71-1.86.65-.68-.07-1.3-.41-1.84-1.03-.55-.62-.82-1.28-.8-1.96.02-.68.31-1.26.87-1.76s1.18-.72,1.86-.65c.67.07,1.29.41,1.84,1.04.55.62.82,1.27.8,1.95ZM94.7,100.82c.42.07.8-.05,1.15-.35.34-.3.51-.67.49-1.09-.02-.42-.22-.86-.61-1.29-.39-.44-.79-.69-1.21-.76-.42-.07-.8.04-1.15.35-.34.3-.51.67-.49,1.1.02.43.22.86.61,1.29.39.44.79.69,1.21.76Z"/>
    <path d="M97.33,92.45c.37-.42.78-.64,1.23-.66.45-.02.9.16,1.34.55l2.63,2.33-.65.74-2.52-2.24c-.55-.49-1.06-.46-1.53.08-.22.25-.32.55-.3.92.02.37.22.72.58,1.04l2.21,1.96-.65.74-3.92-3.48.63-.71.58.52c-.19-.69-.07-1.29.38-1.79Z"/>
    <path d="M105.11,91.42c-.81,1.16-1.73,1.42-2.75.79l.57-.81c.32.18.6.23.83.16.23-.07.47-.27.7-.61.43-.61.45-1.06.05-1.34-.17-.12-.35-.15-.54-.09-.18.06-.42.24-.72.53l-.38.37c-.79.77-1.52.91-2.21.42-.38-.27-.59-.62-.61-1.07-.03-.44.14-.92.49-1.42.8-1.15,1.69-1.4,2.67-.75l-.55.78c-.3-.19-.56-.24-.79-.17s-.46.27-.68.59c-.18.26-.27.49-.27.7,0,.21.09.38.28.51.17.12.34.14.52.09.18-.06.39-.21.63-.44l.38-.38c.46-.44.87-.7,1.22-.79.36-.09.71,0,1.07.24.42.29.63.67.65,1.14s-.17.98-.55,1.53Z"/>
    <path d="M105.96,80.54l-2.44-1.17.43-.89,6.52,3.14-.41.85-.7-.33c.37.6.4,1.24.07,1.91-.31.64-.77,1.04-1.4,1.21s-1.32.06-2.08-.3c-.76-.36-1.27-.84-1.53-1.44-.26-.59-.24-1.21.07-1.85.31-.64.8-1.02,1.46-1.12ZM107.83,84.26c.4-.11.7-.36.9-.77.2-.42.21-.82.03-1.2-.17-.37-.53-.69-1.07-.95-.53-.25-1-.34-1.42-.24-.41.1-.71.35-.91.78-.2.41-.2.81-.01,1.2s.55.71,1.09.97c.53.25.99.33,1.39.22Z"/>
    <path d="M110.33,74.33l.28.09-1.22,3.63c.5.12.92.1,1.24-.05.33-.15.56-.43.69-.84.21-.61.06-1.1-.43-1.47l.32-.94c.46.3.78.69.95,1.16.17.48.15.99-.03,1.54-.23.69-.66,1.17-1.27,1.43-.62.26-1.32.26-2.1,0-.78-.26-1.34-.68-1.67-1.27-.33-.58-.39-1.21-.16-1.89.24-.71.67-1.19,1.31-1.43.63-.24,1.33-.23,2.1.03ZM107.73,76c-.12.37-.11.71.04,1.02.15.31.44.57.86.77l.89-2.66c-.42-.09-.79-.06-1.12.09-.33.15-.55.41-.68.79Z"/>
    <path d="M113.79,71.39c-.29,1.38-1.04,1.98-2.22,1.8l.21-.96c.37.04.64-.02.83-.18s.32-.44.41-.84c.16-.73,0-1.15-.48-1.25-.21-.04-.38,0-.53.13s-.3.39-.46.77l-.21.49c-.42,1.01-1.05,1.43-1.87,1.25-.46-.1-.78-.34-.98-.74-.2-.4-.23-.9-.1-1.49.29-1.37,1.01-1.95,2.17-1.74l-.2.93c-.35-.05-.61,0-.8.15-.18.16-.31.43-.4.81-.07.31-.06.56.03.75.08.19.23.31.45.36.2.04.37,0,.51-.12.14-.12.28-.34.41-.65l.2-.5c.25-.59.52-.99.82-1.21s.66-.28,1.08-.19c.5.11.84.37,1.04.79.2.43.23.97.09,1.62Z"/>
    <path d="M109.45,62.12c.03-.71.31-1.26.82-1.66.51-.4,1.19-.57,2.03-.53.83.04,1.48.28,1.96.73.48.45.7,1.03.67,1.73-.03.72-.35,1.26-.93,1.61l2.72.13-.05.98-7.23-.35.05-.95.79.04c-.59-.41-.87-.99-.83-1.74ZM113.49,63.59c.34-.25.53-.6.55-1.06.02-.46-.13-.83-.45-1.12-.32-.28-.78-.43-1.38-.46-.58-.03-1.04.08-1.37.33-.33.25-.51.6-.53,1.07-.02.45.12.82.43,1.11.32.29.78.44,1.36.47.58.03,1.04-.08,1.39-.34Z"/>
    <path d="M109.38,55.84c0-.14-.01-.24,0-.29l.96-.06v.25c.04.5.19.89.47,1.15.27.26.65.38,1.14.35l2.84-.16.06.98-5.23.3-.05-.95.93-.05c-.69-.28-1.06-.79-1.1-1.53Z"/>
    <path d="M113.26,49.57c.57.38.91.94,1.03,1.68.12.74-.03,1.38-.46,1.92-.42.54-1.04.87-1.86,1-.82.13-1.52,0-2.09-.38-.56-.38-.9-.94-1.02-1.68-.12-.75.03-1.38.45-1.92.42-.53,1.04-.86,1.87-1,.82-.13,1.52,0,2.08.37ZM113.1,52.55c.29-.32.39-.71.32-1.16-.07-.45-.29-.79-.66-1-.37-.21-.84-.27-1.42-.18-.58.09-1.01.29-1.29.61-.29.32-.39.7-.32,1.15.07.45.29.79.66,1,.37.21.84.27,1.42.18.58-.09,1.01-.3,1.29-.61Z"/>
    <path d="M112.92,44.99c.38,1.36,0,2.24-1.13,2.63l-.27-.95c.34-.14.56-.32.65-.54.09-.22.08-.54-.03-.93-.2-.72-.54-1.02-1.01-.88-.2.06-.34.18-.41.36-.07.18-.08.48-.04.89l.04.53c.1,1.09-.26,1.75-1.07,1.98-.45.13-.85.06-1.21-.2-.36-.26-.62-.69-.78-1.27-.38-1.35,0-2.2,1.11-2.54l.26.92c-.33.11-.54.28-.63.51-.09.22-.08.52.03.9.08.3.21.52.37.65.16.13.35.17.57.11.2-.06.33-.17.39-.35.07-.18.09-.43.07-.76l-.06-.54c-.05-.63,0-1.12.16-1.45.16-.33.45-.56.87-.67.49-.14.92-.06,1.29.22.37.29.65.75.83,1.4Z"/>
  </g>
  <g id="Text_oben_vektorisiert_ANKERPUNKT_i_l" data-name="Text oben vektorisiert ANKERPUNKT i l">
    <path d="M3.89,62.98l.97-.1.4,3.97,2.03-.21-.36-3.6.95-.1.36,3.6,2.27-.23-.4-3.94.97-.1.5,5-7.2.73-.51-5.03Z"/>
    <path d="M5.76,58.89c0-.56.18-1,.5-1.32.33-.31.78-.47,1.37-.46l3.52.05v1s-3.39-.05-3.39-.05c-.73-.01-1.1.35-1.11,1.07,0,.33.12.63.37.9.26.27.63.41,1.12.41l2.96.04v1s-5.26-.07-5.26-.07v-.96s.79.01.79.01c-.6-.4-.89-.94-.88-1.63Z"/>
    <path d="M6.26,53.36l.83.08-.1,1.03,3.13.31c.16.02.27-.02.35-.1.08-.08.13-.23.15-.44l.04-.45.81.08c0,.22-.01.42-.03.61-.05.48-.18.83-.39,1.04-.21.21-.53.3-.94.26l-3.22-.32-.08.82-.83-.08.08-.82-1.5-.15.1-.99,1.5.15.1-1.03Z"/>
    <path d="M6.75,49.71c.02-.14.04-.24.06-.28l.95.16-.04.25c-.08.5-.02.91.18,1.23.21.32.55.52,1.03.6l2.81.47-.17.98-5.17-.87.16-.94.92.16c-.61-.43-.86-1.02-.74-1.75Z"/>
    <path d="M10.77,44.79l.29.07-.96,3.75c.51.08.92.04,1.24-.14s.53-.48.63-.9c.16-.63-.01-1.11-.53-1.45l.25-.97c.48.27.82.64,1.02,1.1.2.47.22.98.08,1.56-.18.71-.57,1.23-1.17,1.54-.6.31-1.3.37-2.1.16-.8-.21-1.39-.59-1.76-1.15-.37-.56-.47-1.19-.29-1.89.19-.73.59-1.25,1.21-1.54.61-.29,1.31-.33,2.1-.13ZM8.29,46.67c-.1.38-.06.72.11,1.02.17.3.48.54.91.71l.71-2.75c-.42-.06-.79,0-1.11.17-.31.18-.52.46-.62.84Z"/>
    <path d="M9.46,40.26c.26-.67.69-1.11,1.31-1.33.61-.22,1.31-.18,2.1.12.78.3,1.32.74,1.63,1.31.31.58.34,1.21.09,1.87-.26.68-.73,1.1-1.4,1.26l2.54.98-.36.93-6.75-2.6.34-.89.74.28c-.43-.58-.51-1.22-.24-1.93ZM12.84,42.94c.41-.13.69-.41.86-.84.17-.43.14-.84-.08-1.21-.21-.37-.6-.66-1.17-.88-.54-.21-1.01-.25-1.4-.11-.39.13-.67.42-.84.86-.16.43-.14.83.06,1.2.22.38.6.67,1.14.88.54.21,1.02.25,1.43.11Z"/>
    <path d="M12.07,34.63c.07-.13.11-.22.14-.25l.86.43-.11.22c-.23.46-.29.87-.18,1.23.11.36.38.66.81.87l2.54,1.27-.45.89-4.69-2.35.43-.85.84.42c-.46-.59-.52-1.22-.19-1.89Z"/>
    <path d="M19.52,32.83c-.79,1.19-1.71,1.47-2.75.87l.56-.83c.33.17.6.22.83.14.23-.08.46-.29.7-.64.42-.63.43-1.08.03-1.35-.17-.12-.35-.14-.54-.07-.18.07-.42.25-.71.55l-.38.38c-.78.79-1.51.95-2.21.48-.39-.26-.6-.61-.63-1.06-.03-.44.12-.92.47-1.44.79-1.17,1.68-1.45,2.67-.82l-.54.8c-.3-.18-.57-.23-.8-.15-.23.08-.45.28-.67.61-.18.26-.26.5-.26.71,0,.21.1.38.29.5.17.11.34.14.52.07.18-.06.39-.21.63-.45l.38-.4c.45-.46.86-.73,1.21-.83.36-.1.72-.02,1.08.22.42.28.64.66.67,1.13.02.47-.16.99-.53,1.55Z"/>
    <path d="M21.99,25.23l.23.19-2.48,2.97c.42.29.82.43,1.18.4s.68-.21.96-.54c.42-.5.47-1.01.15-1.54l.64-.77c.32.45.47.93.45,1.43-.02.51-.22.99-.6,1.44-.47.57-1.05.86-1.72.89-.67.03-1.33-.23-1.96-.76-.63-.53-1-1.13-1.1-1.79-.09-.67.09-1.28.55-1.84.48-.58,1.07-.87,1.75-.88.68,0,1.33.26,1.95.79ZM18.95,25.87c-.25.3-.36.62-.33.97s.2.69.52,1.03l1.82-2.18c-.36-.24-.72-.34-1.08-.32-.36.02-.67.19-.92.5Z"/>
    <path d="M23.47,18.48l-.33.3c-.33.3-.33.62-.02.96l.32.35.79-.73.57.61-.79.73,3,3.23-.73.68-3-3.23-.61.56-.57-.61.61-.56-.32-.35c-.7-.76-.67-1.48.08-2.18.07-.07.22-.19.44-.36l.56.6Z"/>
    <path d="M30.97,19.86c-.06.68-.39,1.26-.99,1.73s-1.23.65-1.91.54c-.68-.1-1.28-.48-1.78-1.13-.51-.66-.74-1.33-.68-2.01.06-.68.39-1.25.99-1.72.6-.47,1.24-.65,1.91-.55.67.1,1.27.49,1.78,1.15.51.66.74,1.32.68,2ZM28.27,21.18c.42.09.81,0,1.18-.29.37-.29.55-.64.56-1.07,0-.43-.17-.87-.53-1.33-.36-.46-.75-.74-1.16-.83-.42-.1-.81,0-1.17.29-.37.29-.55.64-.56,1.07,0,.43.17.87.52,1.33.36.46.75.73,1.17.83Z"/>
    <path d="M31.89,13.64c.12-.08.21-.13.25-.15l.52.81-.21.13c-.43.28-.69.6-.79.97-.09.37-.01.76.25,1.17l1.53,2.4-.84.54-2.83-4.42.8-.51.5.79c-.09-.75.18-1.32.8-1.72Z"/>
    <path d="M38.21,10.29c.5-.24.97-.28,1.39-.11s.76.5,1,1.01l1.52,3.17-.91.44-1.47-3.05c-.31-.65-.77-.84-1.36-.55-.32.15-.52.4-.6.75-.08.35-.01.75.21,1.21l1.25,2.59-.9.43-1.47-3.05c-.31-.65-.77-.84-1.37-.55-.32.15-.52.4-.6.75-.08.35-.01.75.21,1.21l1.25,2.59-.9.43-2.27-4.73.86-.41.34.71c.06-.7.37-1.18.95-1.46.7-.34,1.32-.27,1.85.2.04-.75.38-1.28,1.01-1.58Z"/>
    <path d="M47.07,12.01l.27-.08.24.75c-.13.06-.28.12-.46.18-.3.1-.55.11-.73.05-.18-.07-.33-.22-.44-.45-.16.63-.61,1.07-1.34,1.3-.54.17-1,.18-1.4.01s-.67-.47-.82-.94c-.29-.9.16-1.62,1.35-2.14l.7-.31c.24-.11.41-.24.49-.37.09-.14.1-.3.04-.49-.08-.25-.22-.41-.41-.47-.19-.06-.47-.04-.83.08-.39.12-.65.28-.78.47-.13.19-.15.45-.07.8l-.94.3c-.29-1.14.23-1.92,1.54-2.34,1.29-.41,2.09-.13,2.4.85l.84,2.64c.05.17.17.22.35.17ZM44.51,12.94c.4-.13.7-.35.89-.67.19-.32.22-.69.08-1.11l-.17-.52c-.09.14-.27.27-.54.4l-.66.29c-.35.16-.59.33-.7.52-.12.18-.14.39-.06.63.08.24.21.4.41.48.2.08.44.08.74-.02Z"/>
    <path d="M49.21,6.96l.19.81-1.01.23.7,3.07c.04.15.1.25.21.3.1.05.26.05.47,0l.44-.1.18.79c-.21.07-.4.12-.58.17-.47.11-.84.1-1.11-.04-.27-.13-.45-.4-.54-.81l-.72-3.16-.8.18-.19-.81.8-.18-.34-1.47.97-.22.34,1.47,1.01-.23Z"/>
    <path d="M52.83,6.27c.14-.02.24-.03.29-.03l.15.95-.25.04c-.5.08-.88.27-1.11.56-.24.3-.32.69-.24,1.17l.44,2.81-.98.15-.81-5.18.94-.15.14.92c.22-.72.69-1.14,1.43-1.25Z"/>
    <path d="M58.91,11.27c-.73.02-1.33-.22-1.79-.71-.46-.49-.71-1.15-.73-1.97-.02-.83.19-1.51.63-2.02.43-.51,1.02-.77,1.75-.79.63-.02,1.15.15,1.57.49.42.34.67.81.77,1.4l-1.01.02c-.08-.34-.23-.6-.46-.78-.23-.18-.51-.26-.84-.25-.43.01-.77.18-1.02.51-.25.33-.36.79-.35,1.39.01.6.15,1.05.42,1.37.26.32.61.47,1.04.46.33,0,.61-.11.84-.31.23-.2.37-.47.42-.83l1.01-.03c-.06.61-.3,1.1-.71,1.47-.41.37-.92.56-1.54.58Z"/>
    <path d="M66.73,8.94l-.02.29-3.86-.32c0,.52.12.92.35,1.2.23.28.56.44.99.48.65.05,1.1-.2,1.34-.76l1,.08c-.18.52-.49.92-.91,1.19-.43.27-.93.39-1.52.34-.73-.06-1.31-.36-1.71-.9-.41-.54-.58-1.22-.51-2.04.07-.82.35-1.47.84-1.93.49-.46,1.1-.66,1.82-.6.75.06,1.33.37,1.72.93.39.56.55,1.24.48,2.05ZM64.46,6.82c-.39-.03-.72.06-.99.28-.27.22-.45.56-.55,1.02l2.83.24c-.01-.43-.13-.78-.36-1.06-.23-.28-.54-.44-.93-.47Z"/>
    <path d="M55.08,4.8c.02.17-.03.32-.14.45-.11.13-.24.21-.41.22-.17.02-.31-.03-.45-.14-.13-.11-.2-.25-.22-.42-.02-.17.03-.32.13-.45.11-.13.24-.21.41-.22.16-.02.31.03.44.14.13.11.21.25.22.42ZM55.1,6.12l-.99.1.52,5.22.5-.05.5-.05-.52-5.22Z"/>
    <path d="M12.19,31.92c.15.08.24.21.29.37.05.16.03.32-.05.46-.08.14-.21.24-.37.28-.17.04-.32.02-.47-.06-.15-.08-.24-.21-.29-.37-.05-.16-.03-.32.05-.46.08-.14.21-.24.37-.28.17-.04.32-.02.47.06ZM13.27,32.67l-.5.86,4.55,2.61.25-.43.25-.43-4.55-2.61Z"/>
  </g>
</svg>