<svg xmlns="http://www.w3.org/2000/svg" viewBox="0 0 205.55 61.49" width="205.55" height="61.49"><path d="M202.65 50.94c.51-.84.99-1.7 1.47-2.55l1.43-2.55-2.92.04c-.97.01-1.93.02-2.9 0l1.25 2.17-.41.23-.2.12-1.07.61c-.71.41-1.43.79-2.15 1.18-1.43.79-2.89 1.53-4.36 2.25-5.86 2.9-12.03 5.15-18.41 6.52-6.39 1.34-12.94 1.82-19.47 1.69l-4.9-.2-4.89-.39c-3.24-.32-6.47-.88-9.65-1.59-6.37-1.45-12.62-3.48-18.5-6.31-2.93-1.43-5.76-3.07-8.29-5.09-1.23-1.05-2.49-2.08-3.51-3.32a23 23 0 0 1-2.71-3.98c-1.47-2.84-2.41-6.04-2.24-9.24.08-1.59.41-3.17 1.02-4.63.36-.71.69-1.45 1.13-2.09s.98-1.22 1.59-1.71c1.2-.97 2.73-1.65 4.22-1.55.74.03 1.43.35 2.07.78.63.42 1.17.97 1.57 1.63.79 1.32 1.09 2.92 1.02 4.49a12.6 12.6 0 0 1-.3 2.36c-.08.39-.19.78-.3 1.16-.1.34-.3.72-.45 1.09-.3.75-.72 1.44-1.08 2.16-.43.68-.83 1.38-1.32 2.02-.93 1.32-2.02 2.51-3.21 3.61-2.36 2.2-5.16 3.92-8.1 5.27-5.93 2.69-12.45 3.88-18.95 4.27-6.51.36-13.08-.06-19.47-1.42-12.8-2.66-24.69-8.96-34.6-17.44C15.11 22 7 11.47.74 0L0 .4c6.3 11.55 14.47 22.16 24.51 30.73 10 8.56 22.02 14.93 34.97 17.62 6.46 1.37 13.1 1.8 19.69 1.44 6.57-.4 13.19-1.6 19.25-4.35 3.01-1.37 5.88-3.14 8.33-5.42 1.23-1.13 2.36-2.37 3.32-3.73.51-.66.92-1.39 1.37-2.09.38-.74.81-1.46 1.12-2.24.16-.39.35-.73.49-1.19.12-.4.23-.81.31-1.22.18-.82.3-1.66.32-2.51.07-1.69-.24-3.45-1.15-4.96a6.2 6.2 0 0 0-1.82-1.88c-.36-.26-.76-.44-1.16-.62-.43-.16-.87-.27-1.32-.29-1.81-.11-3.48.68-4.81 1.74-.67.54-1.26 1.17-1.75 1.88s-.83 1.48-1.21 2.23c-.66 1.56-1.01 3.24-1.09 4.93-.18 3.38.81 6.71 2.34 9.67a23.7 23.7 0 0 0 2.82 4.13c1.07 1.29 2.37 2.36 3.63 3.43 2.6 2.07 5.48 3.74 8.45 5.19 11.93 5.67 25.14 8.46 38.3 8.58 6.58.13 13.2-.35 19.67-1.7 6.46-1.38 12.7-3.67 18.61-6.59 1.48-.73 2.95-1.47 4.39-2.26.72-.39 1.45-.77 2.16-1.19l1.08-.61.2-.12.41-.23 1.25 2.17Z" style="fill:#6a1dff"/></svg>