<svg viewBox="0 0 1393 217" fill="currentColor" xmlns="http://www.w3.org/2000/svg">
<path d="M79.1702 61.7703H134.27V91.6403H79.1702V212.57H42.9202V91.6403H0.000156924V61.7703H42.9202V52.7803C42.9202 20.3003 63.5102 0.000300884 99.1802 0.000300884C115.71 0.000300884 129.05 4.0603 134.56 7.25031V38.8603C129.92 35.9603 118.03 31.3203 104.11 31.3203C89.3202 31.3203 79.1702 37.9903 79.1702 55.1003V61.7703ZM326.864 210.54C322.804 212.57 315.264 214.89 306.564 214.89C288.874 214.89 279.594 204.16 278.434 192.85C271.184 205.03 254.944 216.63 233.194 216.63C196.364 216.63 177.514 194.3 177.514 169.65C177.514 140.94 198.104 124.7 231.454 122.09L274.954 118.61V110.49C274.954 95.4103 266.834 85.5503 247.404 85.5503C229.714 85.5503 219.854 94.5403 218.984 108.46H183.604C185.924 74.5303 213.764 57.7103 247.984 57.7103C274.374 57.7103 296.994 65.8303 305.984 88.4503C309.754 98.0203 310.334 108.75 310.334 118.9V174.58C310.334 182.99 314.394 184.73 320.774 184.73C323.674 184.73 325.994 184.15 326.864 183.86V210.54ZM274.954 145L236.964 148.48C222.464 149.93 212.894 156.02 212.894 168.2C212.894 180.38 221.884 187.63 236.964 187.63C260.164 187.63 274.954 174.58 274.954 152.25V145ZM498.578 159.79C497.998 171.68 493.648 183.86 486.398 192.85C475.378 205.9 457.688 216.63 431.878 216.63C406.358 216.63 387.798 205.61 376.778 192.85C364.888 178.64 358.218 159.21 358.218 137.17C358.218 115.13 365.178 95.7003 377.068 81.4903C388.088 68.7303 406.358 57.7103 431.878 57.7103C457.688 57.7103 475.378 68.4403 486.398 81.4903C493.648 90.4803 497.998 102.66 498.578 114.55H462.908C461.748 99.1803 450.148 89.0303 431.878 89.0303C419.698 89.0303 411.868 94.2503 406.938 99.7603C397.658 109.62 394.758 122.96 394.758 137.17C394.758 151.38 397.658 165.3 406.938 174.87C412.158 180.38 419.698 185.31 431.878 185.31C448.408 185.31 460.588 176.61 462.908 159.79H498.578ZM679.282 133.11C679.282 142.1 678.412 146.45 678.412 147.61H573.142C573.142 168.2 585.612 187.92 609.102 187.92C626.212 187.92 638.392 179.51 640.712 167.33H675.222C674.062 176.03 667.972 188.5 662.172 195.46C649.122 210.54 629.402 216.63 609.682 216.63C588.222 216.63 572.272 209.38 560.092 198.07C544.432 183.57 536.312 162.11 536.312 137.17C536.312 113.1 544.432 91.9303 559.512 77.1403C571.112 65.8303 587.352 57.7103 608.522 57.7103C631.722 57.7103 653.182 66.7003 665.942 85.2603C676.382 100.63 679.282 116 679.282 133.11ZM642.452 121.22C642.452 102.95 632.592 86.4203 608.812 86.4203C588.802 86.4203 574.882 100.92 573.432 121.22H642.452ZM819.676 212.57V121.22C819.676 103.82 811.556 91.6403 791.836 91.6403C778.786 91.6403 769.216 99.7603 764.286 110.78C759.356 122.09 759.356 136.88 759.356 149.35V212.57H723.106V61.7703H753.556L756.456 81.4903C765.446 65.5403 783.136 58.0003 801.986 58.0003C835.916 58.0003 855.926 81.7803 855.926 113.1V212.57H819.676ZM930.78 137.17C930.78 167.62 945.57 185.02 968.48 185.02C991.39 185.02 1006.18 167.62 1006.18 137.17C1006.18 106.72 991.39 89.3203 968.48 89.3203C945.57 89.3203 930.78 106.72 930.78 137.17ZM893.95 137.17C893.95 87.8703 926.14 57.7103 968.48 57.7103C1010.82 57.7103 1043.01 87.8703 1043.01 137.17C1043.01 186.47 1010.82 216.63 968.48 216.63C926.14 216.63 893.95 186.47 893.95 137.17ZM1186.88 118.9C1186.88 102.95 1179.92 89.0303 1160.49 89.0303C1141.64 89.0303 1129.75 103.82 1129.75 129.05V212.57H1093.21V61.7703H1125.98L1128.88 81.4903C1134.97 68.1503 1150.34 58.0003 1170.35 58.0003C1205.73 58.0003 1222.84 81.7803 1223.42 116V118.9H1186.88ZM1249.56 137.46C1249.56 92.8003 1272.47 58.0003 1316.26 58.0003C1338.59 58.0003 1350.48 67.2803 1355.99 76.2703V0.000300884H1392.24V212.57H1360.92L1358.6 194.59C1349.9 208.51 1335.11 216.34 1314.52 216.34C1270.73 216.34 1249.56 177.48 1249.56 137.46ZM1322.06 185.6C1349.03 185.6 1357.73 160.08 1357.73 136.88C1357.73 115.42 1349.9 88.4503 1322.06 88.4503C1294.22 88.4503 1286.39 115.42 1286.39 136.88C1286.39 160.08 1295.09 185.6 1322.06 185.6Z"/>
</svg>
